<svg width="261" height="95" viewBox="0 0 261 95" fill="none" xmlns="http://www.w3.org/2000/svg">
<g filter="url(#filter0_d_33_450)">
<path d="M26.0205 73.168C23.9298 73.168 21.8205 72.9627 19.6925 72.552C17.6018 72.104 15.6605 71.4693 13.8685 70.648C12.1138 69.7893 10.6951 68.7627 9.61247 67.568C8.5298 66.336 7.98847 64.9173 7.98847 63.312C7.98847 61.2587 8.6418 59.616 9.94847 58.384C11.2551 57.152 12.7858 56.5733 14.5405 56.648C15.9218 56.6853 17.3031 56.984 18.6845 57.544C20.0658 58.0667 21.4658 58.5893 22.8845 59.112C24.3405 59.6347 25.7965 59.896 27.2525 59.896C28.7085 59.896 29.7165 59.7093 30.2765 59.336C30.8365 58.9627 31.1165 58.4587 31.1165 57.824C31.1165 57.0773 30.7245 56.4613 29.9405 55.976C29.1565 55.4907 28.1671 55.1173 26.9725 54.856L24.2285 54.184C21.3911 53.512 18.8525 52.7653 16.6125 51.944C14.3725 51.0853 12.5991 49.9653 11.2925 48.584C10.0231 47.1653 9.38847 45.28 9.38847 42.928C9.38847 40.352 10.0978 38.2613 11.5165 36.656C12.9351 35.0133 14.8578 33.8187 17.2845 33.072C19.7111 32.3253 22.4178 31.952 25.4045 31.952C28.4658 31.952 31.1538 32.2693 33.4685 32.904C35.7831 33.5387 37.5751 34.4533 38.8445 35.648C40.1511 36.8427 40.8045 38.2987 40.8045 40.016C40.8045 41.8453 40.3005 43.2827 39.2925 44.328C38.3218 45.336 37.0151 45.84 35.3725 45.84C34.2898 45.84 33.1511 45.6533 31.9565 45.28C30.7991 44.9067 29.5671 44.552 28.2605 44.216C26.9911 43.8427 25.6285 43.656 24.1725 43.656C22.8658 43.656 21.8765 43.8613 21.2045 44.272C20.5325 44.6453 20.1965 45.1493 20.1965 45.784C20.1965 46.568 20.6445 47.1467 21.5405 47.52C22.4365 47.8933 23.9111 48.3413 25.9645 48.864L29.1005 49.592C31.6765 50.2267 33.9351 50.992 35.8765 51.888C37.8178 52.784 39.3298 53.96 40.4125 55.416C41.4951 56.872 42.0365 58.776 42.0365 61.128C42.0365 63.9653 41.3645 66.28 40.0205 68.072C38.6765 69.8267 36.8098 71.1147 34.4205 71.936C32.0311 72.7573 29.2311 73.168 26.0205 73.168Z" fill="#EF233C"/>
<path d="M53.0084 63.088C49.5764 63.088 46.8338 62.076 44.7804 60.052C42.7564 57.9987 41.7444 55.1093 41.7444 51.384C41.7444 49.096 42.2138 47.0867 43.1524 45.356C44.0911 43.6253 45.3964 42.276 47.0684 41.308C48.7698 40.3107 50.7498 39.812 53.0084 39.812C55.5311 39.812 57.6284 40.3107 59.3004 41.308C60.9724 42.276 62.2191 43.6253 63.0404 45.356C63.8911 47.0867 64.3164 49.096 64.3164 51.384C64.3164 55.1093 63.3778 57.9987 61.5004 60.052C59.6524 62.076 56.8218 63.088 53.0084 63.088ZM46.9804 50.636C46.9804 51.5453 47.4351 52.1907 48.3444 52.572C49.2538 52.924 50.8084 53.1 53.0084 53.1C55.2084 53.1 56.7631 52.924 57.6724 52.572C58.5818 52.1907 59.0364 51.5453 59.0364 50.636C59.0364 49.756 58.5818 49.14 57.6724 48.788C56.7631 48.436 55.2084 48.26 53.0084 48.26C50.8084 48.26 49.2538 48.436 48.3444 48.788C47.4351 49.14 46.9804 49.756 46.9804 50.636Z" fill="#EF233C"/>
<path d="M75.1056 58.9735C73.079 59.3039 71.3037 58.8057 69.7797 57.479C68.2557 56.1523 67.2526 54.1016 66.7706 51.327L65.0917 41.3025C64.8887 40.0577 65.107 39.0264 65.7464 38.2089C66.4101 37.3577 67.4078 36.8235 68.7396 36.6064C70.0134 36.3987 71.1002 36.593 71.9999 37.1894C72.8948 37.7568 73.4438 38.6629 73.6468 39.9078L75.1264 48.984C75.4804 51.1553 76.5115 52.1018 78.2196 51.8233C79.0592 51.6864 79.5742 51.2904 79.7646 50.6352C79.9502 49.9511 79.9628 49.1168 79.8024 48.1325L78.3368 39.1432C78.1528 38.0141 78.3902 37.0095 79.0492 36.1293C79.7034 35.2202 80.653 34.6641 81.8979 34.4612C83.2007 34.2488 84.2632 34.4768 85.0855 35.1452C85.932 35.7799 86.4473 36.6618 86.6313 37.7909L88.9535 52.0349C89.1801 53.4245 89.0433 54.5911 88.5433 55.5345C88.0675 56.4442 87.1347 57.0124 85.7451 57.239C84.3844 57.4608 83.2471 57.2301 82.3333 56.5469C81.4437 55.8301 80.8856 54.7768 80.659 53.3871L80.5387 52.6489L79.757 52.7763C80.0308 54.4555 79.7365 55.8409 78.8743 56.9325C78.0409 58.0194 76.7847 58.6998 75.1056 58.9735Z" fill="#EF233C"/>
<path d="M104.058 39.277C106.085 38.9466 107.86 39.4447 109.384 40.7715C110.908 42.0982 111.911 44.1489 112.393 46.9235L114.072 56.9479C114.275 58.1928 114.057 59.2241 113.417 60.0416C112.754 60.8928 111.756 61.427 110.424 61.6441C109.15 61.8518 108.064 61.6574 107.164 61.0611C106.269 60.4937 105.72 59.5876 105.517 58.3427L104.037 49.2665C103.683 47.0952 102.652 46.1487 100.944 46.4272C100.105 46.5641 99.5896 46.9601 99.3992 47.6153C99.2136 48.2994 99.201 49.1336 99.3614 50.118L100.827 59.1073C101.011 60.2364 100.774 61.241 100.115 62.1212C99.4604 63.0303 98.5108 63.5863 97.2659 63.7893C95.9631 64.0017 94.9006 63.7737 94.0783 63.1053C93.2318 62.4706 92.7166 61.5886 92.5325 60.4596L90.2103 46.2156C89.9837 44.8259 90.1205 43.6594 90.6205 42.716C91.0963 41.8062 92.0291 41.2381 93.4187 41.0115C94.7794 40.7897 95.9167 41.0204 96.8305 41.7036C97.7201 42.4204 98.2782 43.4737 98.5048 44.8633L98.6251 45.6016L99.4068 45.4742C99.1331 43.795 99.4273 42.4096 100.29 41.318C101.123 40.2311 102.379 39.5507 104.058 39.277Z" fill="#EF233C"/>
<path d="M124.237 68C118.898 68 116.229 64.0693 116.229 56.208C116.229 52.8053 116.889 50.092 118.209 48.068C119.529 46.0147 121.509 44.988 124.149 44.988C125.586 44.988 126.745 45.2813 127.625 45.868C128.534 46.4547 129.238 47.2613 129.737 48.288C130.265 49.2853 130.646 50.444 130.881 51.764L131.013 51.72V38.388C131.013 37.1853 131.365 36.1733 132.069 35.352C132.802 34.5013 133.858 34.076 135.237 34.076C136.586 34.076 137.583 34.5013 138.229 35.352C138.903 36.1733 139.241 37.2147 139.241 38.476V58.276C139.241 59.2733 139.314 60.1973 139.461 61.048C139.637 61.8693 139.769 62.6907 139.857 63.512C139.945 64.6267 139.71 65.5947 139.153 66.416C138.625 67.208 137.671 67.7213 136.293 67.956C134.503 68.2493 133.169 67.9413 132.289 67.032C131.438 66.1227 131.013 64.7733 131.013 62.984V61.356H130.177C130.177 63.4973 129.634 65.14 128.549 66.284C127.493 67.428 126.055 68 124.237 68ZM123.577 55.812C123.577 56.7213 123.855 57.396 124.413 57.836C124.97 58.276 125.967 58.496 127.405 58.496C128.871 58.496 129.883 58.276 130.441 57.836C130.998 57.396 131.277 56.7213 131.277 55.812C131.277 54.8733 130.998 54.1987 130.441 53.788C129.913 53.348 128.915 53.128 127.449 53.128C125.982 53.128 124.97 53.348 124.413 53.788C123.855 54.1987 123.577 54.8733 123.577 55.812Z" fill="#EF233C"/>
<path d="M151.754 58.956C150.404 58.8973 149.143 58.7067 147.97 58.384C146.826 58.0613 145.814 57.5187 144.934 56.756C144.054 55.964 143.364 54.8787 142.866 53.5C142.396 52.1213 142.162 50.3613 142.162 48.22C142.162 46.1373 142.44 44.3333 142.998 42.808C143.584 41.2827 144.274 40.0653 145.066 39.156C145.858 38.2467 146.576 37.6893 147.222 37.484L147.002 36.648H146.254C144.904 36.648 143.834 36.2227 143.042 35.372C142.279 34.492 141.883 33.3187 141.854 31.852C141.824 30.3853 142.206 29.212 142.998 28.332C143.819 27.4227 144.904 26.968 146.254 26.968H158.354C161.522 26.968 163.81 27.7307 165.218 29.256C166.626 30.752 167.33 32.7027 167.33 35.108C167.33 37.044 166.875 38.6573 165.966 39.948C165.086 41.2387 163.751 42.016 161.962 42.28V42.94C163.898 43.028 165.467 43.7027 166.67 44.964C167.902 46.196 168.518 48.0293 168.518 50.464C168.518 53.104 167.755 55.2013 166.23 56.756C164.704 58.2813 162.196 59.0293 158.706 59L151.754 58.956ZM150.566 39.2C150.566 39.8453 150.683 40.2707 150.918 40.476C151.152 40.6813 151.592 40.784 152.238 40.784H156.286C157.4 40.784 158.251 40.6227 158.838 40.3C159.424 39.948 159.718 39.2733 159.718 38.276C159.718 37.2493 159.424 36.5747 158.838 36.252C158.251 35.9293 157.4 35.768 156.286 35.768H152.238C151.592 35.768 151.152 35.856 150.918 36.032C150.683 36.208 150.566 36.6333 150.566 37.308V39.2ZM150.566 48.044C150.566 48.6893 150.683 49.1293 150.918 49.364C151.182 49.5987 151.651 49.716 152.326 49.716H156.858C158.002 49.716 158.882 49.5107 159.498 49.1C160.114 48.6893 160.422 47.956 160.422 46.9C160.422 45.844 160.114 45.1253 159.498 44.744C158.882 44.3333 158.002 44.128 156.858 44.128H152.326C151.651 44.128 151.182 44.2307 150.918 44.436C150.683 44.6413 150.566 45.0667 150.566 45.712V48.044Z" fill="#EF233C"/>
<path d="M169.619 39.884C169.619 38.6227 170.001 37.6107 170.763 36.848C171.555 36.056 172.641 35.66 174.019 35.66C175.486 35.66 176.571 36.0413 177.275 36.804C178.009 37.5667 178.375 38.5787 178.375 39.84C178.375 41.072 178.009 42.0693 177.275 42.832C176.571 43.5653 175.486 43.932 174.019 43.932C172.582 43.932 171.482 43.5653 170.719 42.832C169.986 42.0693 169.619 41.0867 169.619 39.884ZM174.019 68C172.641 68 171.614 67.6187 170.939 66.856C170.265 66.0933 169.927 65.14 169.927 63.996V48.948C169.927 47.6867 170.265 46.6893 170.939 45.956C171.614 45.2227 172.641 44.856 174.019 44.856C175.398 44.856 176.425 45.2227 177.099 45.956C177.803 46.6893 178.155 47.6573 178.155 48.86V63.996C178.155 65.14 177.789 66.0933 177.055 66.856C176.351 67.6187 175.339 68 174.019 68Z" fill="#EF233C"/>
<path d="M188.54 51.132C186.985 51.132 185.577 50.78 184.316 50.076C183.084 49.372 182.116 48.3747 181.412 47.084C180.708 45.764 180.356 44.224 180.356 42.464V34.72L178.728 34.94C177.848 35.0573 177.07 34.7493 176.396 34.016C175.721 33.2827 175.384 32.3587 175.384 31.244C175.384 30.1293 175.721 29.22 176.396 28.516C177.07 27.7827 177.848 27.4747 178.728 27.592L180.356 27.812L180.312 24.82C180.282 23.6467 180.62 22.7227 181.324 22.048C182.028 21.344 183.054 20.992 184.404 20.992C185.753 20.992 186.794 21.344 187.528 22.048C188.261 22.7227 188.598 23.6467 188.54 24.82L188.452 27.812L190.784 27.504C192.368 27.2693 193.57 27.5627 194.392 28.384C195.213 29.176 195.624 30.1293 195.624 31.244C195.624 32.3587 195.213 33.3267 194.392 34.148C193.6 34.94 192.441 35.2333 190.916 35.028L188.452 34.72V41.276C188.452 41.6573 188.584 42.0093 188.848 42.332C189.112 42.6253 189.434 42.7133 189.816 42.596C190.256 42.4787 190.71 42.2293 191.18 41.848C191.678 41.4667 192.309 41.276 193.072 41.276C194.216 41.276 195.096 41.6867 195.712 42.508C196.328 43.3293 196.636 44.3413 196.636 45.544C196.636 46.4827 196.298 47.392 195.624 48.272C194.978 49.1227 194.054 49.812 192.852 50.34C191.649 50.868 190.212 51.132 188.54 51.132Z" fill="#EF233C"/>
<path d="M218.568 44.56C218.568 42.2427 218.113 40.204 217.204 38.444C216.265 36.684 214.945 35.3053 213.244 34.308C211.513 33.3107 209.46 32.812 207.084 32.812C205.236 32.812 203.579 33.1493 202.112 33.824C200.616 34.4987 199.443 35.408 198.592 36.552C197.741 37.6667 197.316 38.8987 197.316 40.248C197.316 41.656 197.727 42.6533 198.548 43.24C199.369 43.8267 200.587 44.12 202.2 44.12H211.44C211.44 44.8827 211.147 45.5133 210.56 46.012C209.944 46.5107 208.917 46.76 207.48 46.76C206.747 46.76 206.072 46.6867 205.456 46.54C204.811 46.3933 204.165 46.2613 203.52 46.144C202.845 45.9973 202.097 45.924 201.276 45.924C200.103 45.924 199.135 46.3493 198.372 47.2C197.609 48.0213 197.228 49.1653 197.228 50.632C197.228 52.3627 198.123 53.712 199.912 54.68C201.672 55.648 203.989 56.132 206.864 56.132C208.888 56.132 210.795 55.736 212.584 54.944C214.344 54.152 215.781 52.9053 216.896 51.204C218.011 49.4733 218.568 47.2587 218.568 44.56ZM204.312 42.668C203.872 42.668 203.725 42.4627 203.872 42.052C203.989 41.6413 204.341 41.216 204.928 40.776C205.515 40.336 206.365 40.116 207.48 40.116C208.771 40.116 209.739 40.3947 210.384 40.952C211 41.5093 211.308 42.0813 211.308 42.668H204.312Z" fill="#EF233C"/>
<path d="M227.597 67.0364C225.6 66.7047 223.779 66.209 222.135 65.5492C220.524 64.8653 219.281 64.0196 218.408 63.0122C217.539 61.9758 217.223 60.7487 217.458 59.3308C217.665 58.0865 218.212 57.1218 219.099 56.4365C219.986 55.7513 221.051 55.512 222.296 55.7187C223.077 55.8485 223.837 56.1085 224.575 56.4987C225.347 56.8648 226.162 57.2381 227.02 57.6186C227.879 57.9991 228.829 58.2759 229.871 58.4489C230.797 58.6027 231.426 58.6627 231.759 58.6287C232.096 58.5659 232.289 58.3898 232.337 58.1004C232.395 57.7531 232.231 57.488 231.845 57.305C231.488 57.1267 230.861 56.8739 229.964 56.5464L226.94 55.4196C225.681 54.9429 224.463 54.3986 223.286 53.7868C222.142 53.1509 221.235 52.346 220.565 51.3722C219.923 50.4033 219.722 49.1954 219.962 47.7486C220.289 45.7809 221.412 44.3914 223.331 43.5802C225.279 42.7738 227.916 42.6471 231.244 43.1998C233.154 43.5171 234.83 43.9888 236.272 44.6149C237.743 45.2459 238.865 46.012 239.637 46.9134C240.414 47.7858 240.711 48.7719 240.528 49.8715C240.36 51.0627 239.883 51.9647 239.098 52.5776C238.312 53.1904 237.413 53.4127 236.4 53.2445C235.676 53.1243 234.953 52.9149 234.229 52.6163C233.54 52.2936 232.778 51.9589 231.943 51.6121C231.142 51.2412 230.195 50.95 229.1 50.7384C228.328 50.5507 227.684 50.4884 227.168 50.5513C226.652 50.6143 226.368 50.8049 226.315 51.1232C226.257 51.4705 226.506 51.7645 227.061 52.0053C227.62 52.2172 228.462 52.5206 229.586 52.9154L232.574 53.9916C234.402 54.6224 235.825 55.275 236.843 55.9496C237.894 56.6001 238.596 57.3857 238.949 58.3066C239.301 59.2275 239.355 60.4258 239.11 61.9016C238.855 63.4353 238.193 64.6484 237.123 65.5412C236.086 66.4097 234.746 66.9602 233.102 67.1926C231.457 67.4249 229.622 67.3728 227.597 67.0364Z" fill="#EF233C"/>
</g>
<defs>
<filter id="filter0_d_33_450" x="3.98853" y="18.992" width="241.933" height="60.176" filterUnits="userSpaceOnUse" color-interpolation-filters="sRGB">
<feFlood flood-opacity="0" result="BackgroundImageFix"/>
<feColorMatrix in="SourceAlpha" type="matrix" values="0 0 0 0 0 0 0 0 0 0 0 0 0 0 0 0 0 0 127 0" result="hardAlpha"/>
<feOffset dy="2"/>
<feGaussianBlur stdDeviation="2"/>
<feComposite in2="hardAlpha" operator="out"/>
<feColorMatrix type="matrix" values="0 0 0 0 0 0 0 0 0 0 0 0 0 0 0 0 0 0 0.25 0"/>
<feBlend mode="normal" in2="BackgroundImageFix" result="effect1_dropShadow_33_450"/>
<feBlend mode="normal" in="SourceGraphic" in2="effect1_dropShadow_33_450" result="shape"/>
</filter>
</defs>
</svg>
